<?xml version="1.0" standalone="no"?>
<!DOCTYPE svg PUBLIC "-//W3C//DTD SVG 1.1//EN" "http://www.w3.org/Graphics/SVG/1.1/DTD/svg11.dtd">
<svg t="1691564126695" class="icon" viewBox="0 0 1024 1024" version="1.1" xmlns="http://www.w3.org/2000/svg"
 p-id="2293" xmlns:xlink="http://www.w3.org/1999/xlink" width="16" height="16">
 <path d="M429.9 181.6C323 181.6 236.2 289 236.2 421.5S323 661.3 429.9 661.3s193.8-107.4 193.8-239.9S537 181.6 429.9 181.6z m0 438.6c-83.9 0-152.1-89.1-152.1-198.7S346 222.7 429.9 222.7s152.3 89.1 152.3 198.7-68.4 198.8-152.3 198.8z m205.4-488.9c-36.7 0.6-71.8 14.9-98.3 40.2 12 7.4 23.2 15.8 33.7 25.2 18.1-15.3 41-23.9 64.7-24.4 69.5 0 126 74.6 126 166.3 0 82.7-46.1 151-106.2 163.6-3.7 14.7-8.6 29.1-14.4 43.1 90-3.6 162.1-94.4 162.1-206.7-0.1-114.4-75.1-207.3-167.6-207.3z m194 407.3c-13.4-6.2-29.4-13.6-48.1-22.3-9.6 11.2-20.3 21.4-31.9 30.5 116 55.1 137.2 58.3 137.2 82.4 0 27.6-28 27.6-55.8 27.6H740c18.3 10.2 34.1 24.2 46.3 41.1h44.4c24 0 97.3 0 97.3-68.8 0-45.1-30.8-59.3-98.7-90.5zM651.7 658.4c-17.5-8-38.7-17.8-63.6-29.6-10 11-21 21-32.8 30C695 725.6 720.5 729 720.5 757.3c0 32-32.2 32-64.5 32H204c-32.2 0-64.5 0-64.5-32 0-28.3 25.5-31.7 165.1-98.4-11.8-9-22.8-19-32.8-30-24.9 11.8-46.1 21.6-63.6 29.6-78 35.8-110.2 50.7-110.2 98.8 0 73 77 73 106 73h452c29 0 106 0 106-73 0-48.1-32.3-63-110.3-98.9z" fill="#ffffff" p-id="2294">
 </path></svg>