<?xml version="1.0" standalone="no"?><!DOCTYPE svg PUBLIC "-//W3C//DTD SVG 1.1//EN" "http://www.w3.org/Graphics/SVG/1.1/DTD/svg11.dtd"><svg t="1692928622721" class="icon" viewBox="0 0 1024 1024" version="1.1" xmlns="http://www.w3.org/2000/svg" p-id="4222" xmlns:xlink="http://www.w3.org/1999/xlink" width="16" height="16"><path d="M768 128H256c-70.4 0-128 57.6-128 128v512c0 70.4 57.6 128 128 128h512c70.4 0 128-57.6 128-128V256c0-70.4-57.6-128-128-128z m64 640c0 35.2-28.8 64-64 64H256c-35.2 0-64-28.8-64-64V256c0-35.2 28.8-64 64-64h512c35.2 0 64 28.8 64 64v512z" p-id="4223"></path></svg>