<?xml version="1.0" standalone="no"?><!DOCTYPE svg PUBLIC "-//W3C//DTD SVG 1.1//EN" "http://www.w3.org/Graphics/SVG/1.1/DTD/svg11.dtd"><svg t="1692928642764" class="icon" viewBox="0 0 1024 1024" version="1.1" xmlns="http://www.w3.org/2000/svg" p-id="4365" xmlns:xlink="http://www.w3.org/1999/xlink" width="16" height="16"><path d="M813.056 107.008H204.8a102.4 102.4 0 0 0-102.4 102.4V819.2a102.4 102.4 0 0 0 102.4 102.4h609.28a102.4 102.4 0 0 0 102.4-102.4V208.896a102.4 102.4 0 0 0-103.424-101.888z m-31.744 240.128L413.696 716.8a25.6 25.6 0 0 1-17.92 7.68 25.6 25.6 0 0 1-18.944-7.68L235.008 556.544a25.6 25.6 0 1 1 37.888-33.792L396.288 660.48l349.184-349.184a25.6 25.6 0 1 1 35.84 35.84z" p-id="4366"></path></svg>